<svg width="290" height="200" xmlns="http://www.w3.org/2000/svg">
 <!-- Created with Method Draw - http://github.com/duopixel/Method-Draw/ -->
 <g>
  <title>background</title>
  <rect fill="#ff7f00" id="canvas_background" height="202" width="292" y="-1" x="-1"/>
  <g display="none" overflow="visible" y="0" x="0" height="100%" width="100%" id="canvasGrid">
   <rect fill="url(#gridpattern)" stroke-width="0" y="0" x="0" height="100%" width="100%"/>
  </g>
 </g>
 <g>
  <title>Layer 1</title>
  <text transform="rotate(0.474053, 140.883, 154.45)" font-weight="normal" xml:space="preserve" text-anchor="start" font-family="Georgia, Times, 'Times New Roman', serif" font-size="84" id="svg_1" y="183.949997" x="33" stroke-width="0" stroke="#000" fill="#ffffff">herfst</text>
  <path id="svg_2" d="m202.769455,92.976212c-1.890244,3.939522 -3.213623,6.007446 -9.643417,8.072609c-1.136932,0.56295 0.376114,1.877022 1.136093,1.688515c5.670776,-2.251244 6.994171,-4.13073 9.644348,-8.261169c1.323349,5.258789 4.347412,8.638062 9.453644,10.703293l0.379395,-1.128128c6.997452,3.756195 12.291275,4.507568 16.828247,3.567795c4.350571,-0.939735 9.454544,-1.68837 13.616974,-1.125473c-2.646881,-2.065491 -4.16243,-4.50766 -4.72699,-7.509995c4.34761,-4.507492 12.858139,-2.816513 17.018051,-5.444725l-0.946106,-2.067856c9.077454,-3.002495 16.830353,-7.884331 27.608704,-6.381752l-17.774536,-12.768661l0.376953,-1.691055c-5.2948,-3.942062 -11.344955,-4.881805 -18.155029,-2.251114c2.270813,-6.572773 0,-13.705891 6.243393,-18.776058c-1.51329,-2.816608 0,-6.758774 2.646622,-10.326527c0.379425,-6.758759 2.267609,-12.767452 5.670776,-18.212233c-5.483246,3.567892 -10.964447,6.758654 -16.638565,9.576639l-0.946243,-2.066635c-2.267273,3.569099 -5.483292,6.197197 -9.833099,7.697144l-0.756531,-2.065262c-5.863602,5.821564 -12.85788,8.82402 -17.208817,17.276165c1.323715,-8.263763 -1.135803,-16.336422 -4.539154,-22.908047l-1.323593,1.31538c-2.456879,-8.074022 -11.155151,-13.331474 -16.638443,-19.903009c2.267441,18.024775 -4.352951,20.277336 -4.159897,30.22954l-2.273087,0.185848c3.215942,10.140598 -1.133514,14.834023 0.94632,21.781116c-5.293839,-2.628098 -12.103806,-0.751369 -16.640961,-4.881882c5.483337,8.638153 7.37709,19.150589 16.640961,26.286072l-1.323517,0.562828c3.403473,3.753746 7.754211,6.947212 15.317505,8.826637z" stroke-width="0" stroke="#000" fill="#007f3f"/>
 </g>
</svg>