<?xml version="1.0" encoding="UTF-8"?><svg id="Layer_1" xmlns="http://www.w3.org/2000/svg" viewBox="0 0 247.29 99.16"><defs><style>.cls-1{fill:#16df7e;}</style></defs><g><path d="m102.56,73.71c.13,7.78,5.1,10.98,10.85,10.98,4.12,0,6.6-.72,8.76-1.63l.98,4.12c-2.03.92-5.49,1.96-10.53,1.96-9.74,0-15.56-6.41-15.56-15.95s5.62-17.06,14.84-17.06c10.33,0,13.08,9.09,13.08,14.9,0,1.18-.13,2.09-.2,2.68h-22.23Zm16.87-4.12c.06-3.66-1.5-9.35-7.98-9.35-5.82,0-8.37,5.36-8.83,9.35h16.8Z"/><path d="m131.33,82.6c1.7,1.11,4.71,2.29,7.59,2.29,4.18,0,6.14-2.09,6.14-4.71,0-2.75-1.63-4.25-5.88-5.82-5.69-2.03-8.37-5.17-8.37-8.96,0-5.1,4.12-9.28,10.92-9.28,3.2,0,6.01.91,7.78,1.96l-1.44,4.18c-1.24-.78-3.53-1.83-6.47-1.83-3.4,0-5.3,1.96-5.3,4.31,0,2.61,1.89,3.79,6.01,5.36,5.49,2.09,8.3,4.84,8.3,9.54,0,5.56-4.31,9.48-11.83,9.48-3.46,0-6.67-.85-8.89-2.16l1.44-4.38Z"/><path d="m157.23,82.6c1.7,1.11,4.71,2.29,7.59,2.29,4.18,0,6.14-2.09,6.14-4.71,0-2.75-1.63-4.25-5.88-5.82-5.69-2.03-8.37-5.17-8.37-8.96,0-5.1,4.12-9.28,10.92-9.28,3.2,0,6.01.91,7.78,1.96l-1.44,4.18c-1.24-.78-3.53-1.83-6.47-1.83-3.4,0-5.3,1.96-5.3,4.31,0,2.61,1.89,3.79,6.01,5.36,5.49,2.09,8.3,4.84,8.3,9.54,0,5.56-4.31,9.48-11.83,9.48-3.46,0-6.67-.85-8.89-2.16l1.44-4.38Z"/><path d="m187.12,73.71c.13,7.78,5.1,10.98,10.85,10.98,4.12,0,6.6-.72,8.76-1.63l.98,4.12c-2.03.92-5.49,1.96-10.53,1.96-9.74,0-15.56-6.41-15.56-15.95s5.62-17.06,14.84-17.06c10.33,0,13.08,9.09,13.08,14.9,0,1.18-.13,2.09-.2,2.68h-22.23Zm16.87-4.12c.06-3.66-1.5-9.35-7.98-9.35-5.82,0-8.37,5.36-8.83,9.35h16.8Z"/><path d="m216.69,42.07h5.75v46.41h-5.75v-46.41Z"/><path d="m239.05,47.76v9.09h8.24v4.38h-8.24v17.06c0,3.92,1.11,6.15,4.31,6.15,1.5,0,2.61-.2,3.33-.39l.26,4.31c-1.11.46-2.88.79-5.1.79-2.68,0-4.84-.85-6.21-2.42-1.63-1.7-2.22-4.51-2.22-8.24v-17.26h-4.9v-4.38h4.9v-7.58l5.62-1.5Z"/></g><g><path d="m9.59,27.7l-4.2,12.71H0L13.73,0h6.3l13.79,40.42v16.41l-9.9-29.12h-14.33Zm13.25-4.08l-3.96-11.63c-.9-2.64-1.5-5.04-2.1-7.37h-.12c-.6,2.4-1.26,4.86-2.04,7.32l-3.96,11.69h12.17Z"/><path d="m116.15,4.44h-22.17l-6.03-4.44h45.83v4.44h-12.35v35.98h-5.28V4.44Z"/><path d="m143.41,0v40.42h-5.22V0h5.22Z"/><path d="m171.08,21.47h-15.71v14.57h17.51v4.38h-22.73V0h21.83v4.38h-16.61v12.77h15.71v4.32Z"/><path d="m178.41,0h21.77v4.38h-16.55v13.43h15.29v4.32h-15.29v18.29h-5.22V0Z"/></g><path class="cls-1" d="m33.82,0h12.8v47.82h.44c2.65-3.82,5.3-7.36,7.8-10.59L85.17,0h15.89l-35.9,42.08,38.69,57.08h-15.15l-32.66-48.7-9.42,10.89v37.81h-12.8V0Z"/></svg>